<?xml version="1.0" standalone="no"?>
<!DOCTYPE svg PUBLIC "-//W3C//DTD SVG 20010904//EN"
 "http://www.w3.org/TR/2001/REC-SVG-20010904/DTD/svg10.dtd">
<svg version="1.0" xmlns="http://www.w3.org/2000/svg"
 width="551.000000pt" height="515.000000pt" viewBox="0 0 551.000000 515.000000"
 preserveAspectRatio="xMidYMid meet">

<g transform="translate(0.000000,515.000000) scale(0.100000,-0.100000)"
fill="#000000" stroke="none">
<path d="M2610 4733 c-8 -3 -17 -9 -20 -12 -3 -4 -48 -31 -100 -60 -130 -74
-388 -223 -485 -280 -44 -26 -156 -93 -250 -148 -211 -125 -340 -200 -382
-224 -18 -11 -48 -27 -65 -38 -18 -10 -103 -59 -188 -108 -191 -110 -259 -154
-285 -183 -20 -22 -20 -38 -23 -1043 -2 -915 -1 -1023 13 -1044 14 -21 143
-113 159 -113 3 0 49 -26 103 -58 54 -32 188 -112 298 -177 110 -65 259 -152
330 -195 72 -42 173 -101 225 -130 52 -29 106 -61 120 -71 14 -9 53 -32 85
-50 33 -18 148 -85 255 -149 107 -65 211 -123 231 -130 45 -16 68 -10 144 36
33 20 78 46 100 58 47 27 222 129 455 266 91 53 275 161 410 240 135 79 304
178 375 220 72 43 178 106 236 140 59 34 120 73 135 85 l29 23 3 1030 2 1031
-30 34 c-16 19 -102 77 -191 128 -88 52 -176 103 -195 114 -18 11 -154 90
-301 176 -147 85 -374 218 -503 294 -129 76 -248 146 -265 155 -16 10 -70 41
-120 70 -49 29 -110 64 -135 78 -25 13 -49 28 -54 33 -11 10 -92 11 -116 2z
m86 -258 c4 -8 10 -15 15 -15 4 0 49 -25 100 -55 50 -30 94 -55 97 -55 3 0 13
-6 21 -14 9 -7 43 -28 76 -45 32 -18 71 -41 85 -50 22 -16 72 -45 222 -129 20
-12 55 -33 78 -47 23 -14 56 -34 73 -44 42 -24 137 -79 162 -94 62 -38 106
-64 150 -87 42 -22 277 -160 353 -207 12 -7 22 -17 22 -21 0 -4 -24 -20 -53
-36 -28 -16 -121 -69 -204 -118 -84 -48 -174 -100 -200 -115 -27 -14 -55 -30
-63 -36 -12 -7 -42 6 -115 50 -55 33 -176 104 -270 158 -93 54 -189 111 -212
127 -23 15 -44 28 -46 28 -3 0 -63 34 -133 77 -174 103 -195 105 -319 30 -92
-55 -316 -188 -370 -219 -16 -10 -52 -30 -80 -44 -27 -15 -77 -44 -110 -64
-33 -20 -114 -68 -180 -106 -65 -38 -134 -84 -152 -102 l-33 -33 2 -579 3
-579 29 -30 c27 -28 63 -51 311 -196 476 -279 530 -311 568 -337 l27 -19 0
-304 c0 -167 -4 -306 -8 -309 -5 -3 -46 17 -92 44 -46 28 -85 50 -87 50 -2 0
-22 12 -46 27 -43 27 -238 141 -317 185 -25 14 -130 76 -235 138 -104 62 -271
161 -370 219 -99 59 -217 129 -263 156 l-82 48 2 910 3 910 110 64 c284 168
398 235 500 294 60 35 117 69 127 74 9 6 56 33 105 61 74 43 522 306 713 420
63 37 78 40 86 19z m12 -924 c15 -10 77 -47 137 -81 61 -35 126 -72 145 -83
19 -11 55 -31 80 -45 25 -14 65 -38 90 -54 24 -17 80 -50 125 -75 44 -24 107
-61 140 -81 l60 -38 0 -463 0 -464 -160 -95 c-88 -51 -266 -155 -395 -229
-129 -74 -240 -140 -247 -145 -14 -11 -26 -6 -153 68 -47 28 -123 72 -170 100
-46 27 -179 105 -295 174 l-210 126 -3 466 -2 465 312 183 c376 220 424 248
463 272 38 22 49 22 83 -1z m1572 -989 l0 -848 -96 -55 c-130 -74 -235 -135
-464 -270 -107 -64 -267 -158 -355 -209 -379 -221 -501 -294 -516 -306 -8 -8
-26 -15 -39 -16 l-25 -3 -1 295 c0 162 3 305 7 316 7 19 95 75 259 166 25 14
144 83 265 155 121 71 249 146 286 166 73 41 103 69 118 110 7 19 11 198 11
528 l0 499 45 28 c24 15 72 43 106 62 35 19 137 79 228 132 91 54 167 98 169
98 1 0 2 -382 2 -848z"/>
</g>
</svg>
